<svg xmlns="http://www.w3.org/2000/svg" xmlns:v="https://svgstorm.com"
viewBox = "0 0 822 818"
width="822"
height="818">
<g fill="None" fill-opacity="0.0" stroke="#000000" stroke-opacity="0.00" stroke-width="0.3"><path d="
M 0.00 818.00 
L 822.00 818.00
L 822.00 0.00
L 0.00 0.00
L 0.00 818.00
M 802.00 377.00 
C 786.59 343.10 768.76 312.16 739.75 286.25 C 710.74 260.34 682.28 241.71 644.32 228.68 C 606.36 215.64 550.62 208.61 508.99 218.99 C 467.37 229.37 410.60 223.60 369.78 232.78 C 328.95 241.95 305.10 263.71 275.00 291.00
C 305.70 167.89 446.91 96.00 568.00 126.00
C 528.63 107.98 472.68 103.95 430.33 112.33 C 387.98 120.71 355.09 137.89 322.75 165.75 C 290.41 193.62 273.71 221.25 257.02 260.02 C 240.34 298.80 238.52 352.74 231.00 395.00
C 221.74 390.18 218.54 379.49 212.75 370.25 C 206.95 361.02 202.29 351.43 198.07 340.93 C 193.86 330.42 190.79 319.35 187.02 307.98 C 183.26 296.60 182.01 283.48 180.00 271.00 C 177.99 258.52 178.31 242.82 179.00 230.00 C 179.69 217.18 182.39 203.82 184.98 191.98 C 187.57 180.14 191.39 169.36 195.77 158.77 C 200.15 148.18 204.22 138.49 210.30 129.30 C 216.39 120.12 221.04 111.26 228.25 103.25 C 235.47 95.25 241.54 87.81 249.75 80.75 C 257.96 73.70 265.65 67.82 274.75 61.75 C 283.84 55.67 292.90 51.14 303.08 46.08 C 313.25 41.01 323.48 37.04 335.02 34.02 C 346.57 31.01 358.46 27.86 371.00 26.00 C 383.54 24.15 398.49 22.81 412.00 23.00 C 425.51 23.19 441.17 22.91 454.00 25.00 C 466.83 27.09 480.90 26.97 493.00 30.00 C 505.10 33.02 516.63 35.48 528.02 38.98 C 539.42 42.47 550.27 46.07 561.02 49.98 C 571.78 53.88 581.13 59.58 591.22 63.78 C 601.31 67.97 609.93 74.28 619.23 79.77 C 628.53 85.26 637.07 91.14 645.75 97.25 C 654.42 103.37 662.18 109.95 670.25 116.75 C 678.31 123.55 685.83 130.05 693.25 137.75 C 700.67 145.46 707.96 152.13 714.75 160.25 C 721.54 168.36 727.27 176.76 733.77 185.23 C 740.27 193.70 745.26 202.68 751.30 211.70 C 757.34 220.71 761.78 230.33 766.77 240.23 C 771.77 250.13 776.16 260.40 779.93 271.07 C 783.69 281.75 787.78 292.98 790.78 304.22 C 793.78 315.46 797.28 328.41 798.93 340.07 C 800.58 351.73 806.13 367.12 802.00 377.00
M 211.00 84.00 
C 162.79 139.86 143.84 222.09 156.00 294.00 C 168.15 365.92 219.03 414.58 243.92 480.08 C 268.82 545.58 332.19 589.86 399.00 599.00
C 355.74 618.71 294.24 608.04 252.77 591.23 C 211.30 574.42 181.59 551.39 153.08 516.92 C 124.57 482.45 105.09 441.75 98.00 398.00
C 98.67 459.31 122.79 520.85 167.75 565.25 C 212.72 609.65 272.29 633.74 336.00 636.00 C 399.71 638.26 458.25 601.81 512.00 573.00
C 504.03 600.09 491.12 625.98 473.75 648.75 C 456.37 671.51 438.77 688.21 414.75 704.75 C 390.74 721.30 362.66 731.38 333.33 738.33 C 304.00 745.28 259.84 744.28 231.33 734.67 C 202.82 725.07 179.17 714.26 155.77 696.23 C 132.37 678.20 116.86 660.75 100.08 636.92 C 83.30 613.08 70.99 590.17 59.68 562.32 C 48.36 534.47 38.92 503.30 35.00 472.00 C 31.08 440.69 29.18 395.64 33.00 364.00 C 36.82 332.36 44.78 299.44 55.32 271.32 C 65.86 243.20 78.17 218.82 94.25 195.25 C 110.34 171.69 126.02 152.06 146.75 132.75 C 167.48 113.45 187.21 95.21 211.00 84.00
M 435.00 801.00 
C 433.00 801.00 431.00 801.00 429.00 801.00
C 421.14 801.76 411.80 801.84 404.00 801.00
C 402.33 801.00 400.67 801.00 399.00 801.00
C 353.54 801.00 308.76 788.24 269.00 770.00
C 320.73 771.03 381.27 758.33 423.23 730.23 C 465.19 702.13 494.06 672.82 516.32 628.32 C 538.58 583.82 553.35 542.72 581.92 499.92 C 610.50 457.13 608.65 387.96 590.00 341.00
C 637.30 383.06 658.02 446.82 658.00 510.00 C 657.99 573.18 633.03 633.57 591.00 680.00
C 590.76 680.16 591.00 681.00 591.00 681.00
C 600.84 679.70 607.91 665.31 616.25 659.25 C 624.59 653.18 630.00 641.33 637.25 633.25 C 644.51 625.18 649.72 614.63 655.75 604.75 C 661.79 594.88 665.31 583.38 669.98 571.98 C 674.64 560.57 676.42 546.75 679.00 534.00 C 681.58 521.25 683.74 504.88 683.00 491.00 C 682.27 477.12 680.67 461.86 678.01 448.99 C 675.35 436.13 672.22 423.63 668.02 411.98 C 663.83 400.32 657.84 390.92 652.69 380.31 C 647.55 369.69 641.23 360.93 634.08 351.92 C 626.93 342.91 620.92 334.29 612.75 326.25 C 604.58 318.21 597.43 310.42 588.75 303.25 C 580.07 296.08 570.25 290.55 561.30 283.70 C 552.36 276.85 541.72 271.69 532.31 265.70 C 522.89 259.70 511.84 254.40 505.00 246.00
C 612.41 220.80 722.75 273.93 772.31 372.69 C 821.86 471.46 782.25 590.74 709.75 668.75 C 637.25 746.76 541.68 798.02 435.00 801.00
M 426.00 563.00 
C 418.33 563.67 410.37 562.96 403.00 562.00
C 395.06 560.97 386.01 560.17 379.00 557.00
C 375.96 556.22 373.01 556.03 370.00 555.00
C 314.05 535.86 272.67 483.91 268.00 425.00
C 267.41 417.62 267.50 409.39 268.00 402.00
C 272.75 332.26 328.36 271.63 398.00 263.00
C 407.28 261.85 417.39 261.35 427.00 262.00
C 505.54 267.35 566.91 333.99 567.00 413.00 C 567.09 492.01 503.35 556.19 426.00 563.00 Z"/>
</g>
<g fill="None" fill-opacity="0.0" stroke="#529121" stroke-opacity="0.98" stroke-width="0.3"><path d="
M 802.00 377.00 
C 806.13 367.12 800.58 351.73 798.93 340.07 C 797.28 328.41 793.78 315.46 790.78 304.22 C 787.78 292.98 783.69 281.75 779.93 271.07 C 776.16 260.40 771.77 250.13 766.77 240.23 C 761.78 230.33 757.34 220.71 751.30 211.70 C 745.26 202.68 740.27 193.70 733.77 185.23 C 727.27 176.76 721.54 168.36 714.75 160.25 C 707.96 152.13 700.67 145.46 693.25 137.75 C 685.83 130.05 678.31 123.55 670.25 116.75 C 662.18 109.95 654.42 103.37 645.75 97.25 C 637.07 91.14 628.53 85.26 619.23 79.77 C 609.93 74.28 601.31 67.97 591.22 63.78 C 581.13 59.58 571.78 53.88 561.02 49.98 C 550.27 46.07 539.42 42.47 528.02 38.98 C 516.63 35.48 505.10 33.02 493.00 30.00 C 480.90 26.97 466.83 27.09 454.00 25.00 C 441.17 22.91 425.51 23.19 412.00 23.00 C 398.49 22.81 383.54 24.15 371.00 26.00 C 358.46 27.86 346.57 31.01 335.02 34.02 C 323.48 37.04 313.25 41.01 303.08 46.08 C 292.90 51.14 283.84 55.67 274.75 61.75 C 265.65 67.82 257.96 73.70 249.75 80.75 C 241.54 87.81 235.47 95.25 228.25 103.25 C 221.04 111.26 216.39 120.12 210.30 129.30 C 204.22 138.49 200.15 148.18 195.77 158.77 C 191.39 169.36 187.57 180.14 184.98 191.98 C 182.39 203.82 179.69 217.18 179.00 230.00 C 178.31 242.82 177.99 258.52 180.00 271.00 C 182.01 283.48 183.26 296.60 187.02 307.98 C 190.79 319.35 193.86 330.42 198.07 340.93 C 202.29 351.43 206.95 361.02 212.75 370.25 C 218.54 379.49 221.74 390.18 231.00 395.00
C 238.52 352.74 240.34 298.80 257.02 260.02 C 273.71 221.25 290.41 193.62 322.75 165.75 C 355.09 137.89 387.98 120.71 430.33 112.33 C 472.68 103.95 528.63 107.98 568.00 126.00
C 446.91 96.00 305.70 167.89 275.00 291.00
C 305.10 263.71 328.95 241.95 369.78 232.78 C 410.60 223.60 467.37 229.37 508.99 218.99 C 550.62 208.61 606.36 215.64 644.32 228.68 C 682.28 241.71 710.74 260.34 739.75 286.25 C 768.76 312.16 786.59 343.10 802.00 377.00 Z"/>
</g>
<g fill="None" fill-opacity="0.0" stroke="#2B4C0E" stroke-opacity="0.97" stroke-width="0.3"><path d="
M 211.00 84.00 
C 187.21 95.21 167.48 113.45 146.75 132.75 C 126.02 152.06 110.34 171.69 94.25 195.25 C 78.17 218.82 65.86 243.20 55.32 271.32 C 44.78 299.44 36.82 332.36 33.00 364.00 C 29.18 395.64 31.08 440.69 35.00 472.00 C 38.92 503.30 48.36 534.47 59.68 562.32 C 70.99 590.17 83.30 613.08 100.08 636.92 C 116.86 660.75 132.37 678.20 155.77 696.23 C 179.17 714.26 202.82 725.07 231.33 734.67 C 259.84 744.28 304.00 745.28 333.33 738.33 C 362.66 731.38 390.74 721.30 414.75 704.75 C 438.77 688.21 456.37 671.51 473.75 648.75 C 491.12 625.98 504.03 600.09 512.00 573.00
C 458.25 601.81 399.71 638.26 336.00 636.00 C 272.29 633.74 212.72 609.65 167.75 565.25 C 122.79 520.85 98.67 459.31 98.00 398.00
C 105.09 441.75 124.57 482.45 153.08 516.92 C 181.59 551.39 211.30 574.42 252.77 591.23 C 294.24 608.04 355.74 618.71 399.00 599.00
C 332.19 589.86 268.82 545.58 243.92 480.08 C 219.03 414.58 168.15 365.92 156.00 294.00 C 143.84 222.09 162.79 139.86 211.00 84.00 Z"/>
</g>
<g fill="None" fill-opacity="0.0" stroke="#88C12C" stroke-opacity="0.98" stroke-width="0.3"><path d="
M 591.00 681.00 
C 592.72 683.89 588.46 685.65 586.00 686.00
C 586.16 683.36 589.02 681.38 591.00 680.00
C 633.03 633.57 657.99 573.18 658.00 510.00 C 658.02 446.82 637.30 383.06 590.00 341.00
C 608.65 387.96 610.50 457.13 581.92 499.92 C 553.35 542.72 538.58 583.82 516.32 628.32 C 494.06 672.82 465.19 702.13 423.23 730.23 C 381.27 758.33 320.73 771.03 269.00 770.00
C 308.76 788.24 353.54 801.00 399.00 801.00
C 410.31 799.91 423.76 799.91 435.00 801.00
C 541.68 798.02 637.25 746.76 709.75 668.75 C 782.25 590.74 821.86 471.46 772.31 372.69 C 722.75 273.93 612.41 220.80 505.00 246.00
C 511.84 254.40 522.89 259.70 532.31 265.70 C 541.72 271.69 552.36 276.85 561.30 283.70 C 570.25 290.55 580.07 296.08 588.75 303.25 C 597.43 310.42 604.58 318.21 612.75 326.25 C 620.92 334.29 626.93 342.91 634.08 351.92 C 641.23 360.93 647.55 369.69 652.69 380.31 C 657.84 390.92 663.83 400.32 668.02 411.98 C 672.22 423.63 675.35 436.13 678.01 448.99 C 680.67 461.86 682.27 477.12 683.00 491.00 C 683.74 504.88 681.58 521.25 679.00 534.00 C 676.42 546.75 674.64 560.57 669.98 571.98 C 665.31 583.38 661.79 594.88 655.75 604.75 C 649.72 614.63 644.51 625.18 637.25 633.25 C 630.00 641.33 624.59 653.18 616.25 659.25 C 607.91 665.31 600.84 679.70 591.00 681.00 Z"/>
</g>
<g fill="None" fill-opacity="0.0" stroke="#E7B329" stroke-opacity="0.60" stroke-width="0.3"><path d="
M 398.00 263.00 
C 406.96 263.16 417.99 262.26 427.00 262.00
C 417.39 261.35 407.28 261.85 398.00 263.00 Z"/>
</g>
<g fill="None" fill-opacity="0.0" stroke="#E39E25" stroke-opacity="1.00" stroke-width="0.3"><path d="
M 398.00 263.00 
C 328.36 271.63 272.75 332.26 268.00 402.00
C 268.20 408.84 268.12 418.25 268.00 425.00
C 272.67 483.91 314.05 535.86 370.00 555.00
C 373.05 555.42 375.51 555.42 379.00 557.00
C 386.01 560.17 395.06 560.97 403.00 562.00
C 406.22 561.91 411.06 561.50 415.00 561.00 C 418.94 560.50 424.23 562.78 426.00 563.00
C 503.35 556.19 567.09 492.01 567.00 413.00 C 566.91 333.99 505.54 267.35 427.00 262.00
C 417.99 262.26 406.96 263.16 398.00 263.00 Z"/>
</g>
<g fill="None" fill-opacity="0.0" stroke="#E3B92B" stroke-opacity="0.98" stroke-width="0.3"><path d="
M 268.00 425.00 
C 268.12 418.25 268.20 408.84 268.00 402.00
C 267.50 409.39 267.41 417.62 268.00 425.00 Z"/>
</g>
<g fill="None" fill-opacity="0.0" stroke="#E8B029" stroke-opacity="0.68" stroke-width="0.3"><path d="
M 370.00 555.00 
C 373.01 556.03 375.96 556.22 379.00 557.00
C 375.51 555.42 373.05 555.42 370.00 555.00 Z"/>
</g>
<g fill="None" fill-opacity="0.0" stroke="#E6B229" stroke-opacity="0.75" stroke-width="0.3"><path d="
M 403.00 562.00 
C 410.37 562.96 418.33 563.67 426.00 563.00
C 424.23 562.78 418.94 560.50 415.00 561.00 C 411.06 561.50 406.22 561.91 403.00 562.00 Z"/>
</g>
<g fill="None" fill-opacity="0.0" stroke="#86BE2D" stroke-opacity="0.55" stroke-width="0.3"><path d="
M 591.00 681.00 
C 591.00 681.00 590.76 680.16 591.00 680.00
C 589.02 681.38 586.16 683.36 586.00 686.00
C 588.46 685.65 592.72 683.89 591.00 681.00 Z"/>
</g>
<g fill="None" fill-opacity="0.0" stroke="#84BE2C" stroke-opacity="0.85" stroke-width="0.3"><path d="
M 399.00 801.00 
C 400.67 801.00 402.33 801.00 404.00 801.00
C 412.33 801.00 420.67 801.00 429.00 801.00
C 431.00 801.00 433.00 801.00 435.00 801.00
C 423.76 799.91 410.31 799.91 399.00 801.00 Z"/>
</g>
<g fill="None" fill-opacity="0.0" stroke="#7E7F1F" stroke-opacity="0.03" stroke-width="0.3"><path d="
M 429.00 801.00 
C 420.67 801.00 412.33 801.00 404.00 801.00
C 411.80 801.84 421.14 801.76 429.00 801.00 Z"/>
</g>
<g fill="#000000" fill-opacity="0.00" stroke="None">
<path d="
M 0.00 818.00 
L 822.00 818.00
L 822.00 0.00
L 0.00 0.00
L 0.00 818.00
M 802.00 377.00 
C 786.59 343.10 768.76 312.16 739.75 286.25 C 710.74 260.34 682.28 241.71 644.32 228.68 C 606.36 215.64 550.62 208.61 508.99 218.99 C 467.37 229.37 410.60 223.60 369.78 232.78 C 328.95 241.95 305.10 263.71 275.00 291.00
C 305.70 167.89 446.91 96.00 568.00 126.00
C 528.63 107.98 472.68 103.95 430.33 112.33 C 387.98 120.71 355.09 137.89 322.75 165.75 C 290.41 193.62 273.71 221.25 257.02 260.02 C 240.34 298.80 238.52 352.74 231.00 395.00
C 221.74 390.18 218.54 379.49 212.75 370.25 C 206.95 361.02 202.29 351.43 198.07 340.93 C 193.86 330.42 190.79 319.35 187.02 307.98 C 183.26 296.60 182.01 283.48 180.00 271.00 C 177.99 258.52 178.31 242.82 179.00 230.00 C 179.69 217.18 182.39 203.82 184.98 191.98 C 187.57 180.14 191.39 169.36 195.77 158.77 C 200.15 148.18 204.22 138.49 210.30 129.30 C 216.39 120.12 221.04 111.26 228.25 103.25 C 235.47 95.25 241.54 87.81 249.75 80.75 C 257.96 73.70 265.65 67.82 274.75 61.75 C 283.84 55.67 292.90 51.14 303.08 46.08 C 313.25 41.01 323.48 37.04 335.02 34.02 C 346.57 31.01 358.46 27.86 371.00 26.00 C 383.54 24.15 398.49 22.81 412.00 23.00 C 425.51 23.19 441.17 22.91 454.00 25.00 C 466.83 27.09 480.90 26.97 493.00 30.00 C 505.10 33.02 516.63 35.48 528.02 38.98 C 539.42 42.47 550.27 46.07 561.02 49.98 C 571.78 53.88 581.13 59.58 591.22 63.78 C 601.31 67.97 609.93 74.28 619.23 79.77 C 628.53 85.26 637.07 91.14 645.75 97.25 C 654.42 103.37 662.18 109.95 670.25 116.75 C 678.31 123.55 685.83 130.05 693.25 137.75 C 700.67 145.46 707.96 152.13 714.75 160.25 C 721.54 168.36 727.27 176.76 733.77 185.23 C 740.27 193.70 745.26 202.68 751.30 211.70 C 757.34 220.71 761.78 230.33 766.77 240.23 C 771.77 250.13 776.16 260.40 779.93 271.07 C 783.69 281.75 787.78 292.98 790.78 304.22 C 793.78 315.46 797.28 328.41 798.93 340.07 C 800.58 351.73 806.13 367.12 802.00 377.00
M 211.00 84.00 
C 162.79 139.86 143.84 222.09 156.00 294.00 C 168.15 365.92 219.03 414.58 243.92 480.08 C 268.82 545.58 332.19 589.86 399.00 599.00
C 355.74 618.71 294.24 608.04 252.77 591.23 C 211.30 574.42 181.59 551.39 153.08 516.92 C 124.57 482.45 105.09 441.75 98.00 398.00
C 98.67 459.31 122.79 520.85 167.75 565.25 C 212.72 609.65 272.29 633.74 336.00 636.00 C 399.71 638.26 458.25 601.81 512.00 573.00
C 504.03 600.09 491.12 625.98 473.75 648.75 C 456.37 671.51 438.77 688.21 414.75 704.75 C 390.74 721.30 362.66 731.38 333.33 738.33 C 304.00 745.28 259.84 744.28 231.33 734.67 C 202.82 725.07 179.17 714.26 155.77 696.23 C 132.37 678.20 116.86 660.75 100.08 636.92 C 83.30 613.08 70.99 590.17 59.68 562.32 C 48.36 534.47 38.92 503.30 35.00 472.00 C 31.08 440.69 29.18 395.64 33.00 364.00 C 36.82 332.36 44.78 299.44 55.32 271.32 C 65.86 243.20 78.17 218.82 94.25 195.25 C 110.34 171.69 126.02 152.06 146.75 132.75 C 167.48 113.45 187.21 95.21 211.00 84.00
M 435.00 801.00 
C 433.00 801.00 431.00 801.00 429.00 801.00
C 421.14 801.76 411.80 801.84 404.00 801.00
C 402.33 801.00 400.67 801.00 399.00 801.00
C 353.54 801.00 308.76 788.24 269.00 770.00
C 320.73 771.03 381.27 758.33 423.23 730.23 C 465.19 702.13 494.06 672.82 516.32 628.32 C 538.58 583.82 553.35 542.72 581.92 499.92 C 610.50 457.13 608.65 387.96 590.00 341.00
C 637.30 383.06 658.02 446.82 658.00 510.00 C 657.99 573.18 633.03 633.57 591.00 680.00
C 590.76 680.16 591.00 681.00 591.00 681.00
C 600.84 679.70 607.91 665.31 616.25 659.25 C 624.59 653.18 630.00 641.33 637.25 633.25 C 644.51 625.18 649.72 614.63 655.75 604.75 C 661.79 594.88 665.31 583.38 669.98 571.98 C 674.64 560.57 676.42 546.75 679.00 534.00 C 681.58 521.25 683.74 504.88 683.00 491.00 C 682.27 477.12 680.67 461.86 678.01 448.99 C 675.35 436.13 672.22 423.63 668.02 411.98 C 663.83 400.32 657.84 390.92 652.69 380.31 C 647.55 369.69 641.23 360.93 634.08 351.92 C 626.93 342.91 620.92 334.29 612.75 326.25 C 604.58 318.21 597.43 310.42 588.75 303.25 C 580.07 296.08 570.25 290.55 561.30 283.70 C 552.36 276.85 541.72 271.69 532.31 265.70 C 522.89 259.70 511.84 254.40 505.00 246.00
C 612.41 220.80 722.75 273.93 772.31 372.69 C 821.86 471.46 782.25 590.74 709.75 668.75 C 637.25 746.76 541.68 798.02 435.00 801.00
M 426.00 563.00 
C 418.33 563.67 410.37 562.96 403.00 562.00
C 395.06 560.97 386.01 560.17 379.00 557.00
C 375.96 556.22 373.01 556.03 370.00 555.00
C 314.05 535.86 272.67 483.91 268.00 425.00
C 267.41 417.62 267.50 409.39 268.00 402.00
C 272.75 332.26 328.36 271.63 398.00 263.00
C 407.28 261.85 417.39 261.35 427.00 262.00
C 505.54 267.35 566.91 333.99 567.00 413.00 C 567.09 492.01 503.35 556.19 426.00 563.00 Z"/>
</g>
<g fill="#529121" fill-opacity="0.98" stroke="None">
<path d="
M 802.00 377.00 
C 806.13 367.12 800.58 351.73 798.93 340.07 C 797.28 328.41 793.78 315.46 790.78 304.22 C 787.78 292.98 783.69 281.75 779.93 271.07 C 776.16 260.40 771.77 250.13 766.77 240.23 C 761.78 230.33 757.34 220.71 751.30 211.70 C 745.26 202.68 740.27 193.70 733.77 185.23 C 727.27 176.76 721.54 168.36 714.75 160.25 C 707.96 152.13 700.67 145.46 693.25 137.75 C 685.83 130.05 678.31 123.55 670.25 116.75 C 662.18 109.95 654.42 103.37 645.75 97.25 C 637.07 91.14 628.53 85.26 619.23 79.77 C 609.93 74.28 601.31 67.97 591.22 63.78 C 581.13 59.58 571.78 53.88 561.02 49.98 C 550.27 46.07 539.42 42.47 528.02 38.98 C 516.63 35.48 505.10 33.02 493.00 30.00 C 480.90 26.97 466.83 27.09 454.00 25.00 C 441.17 22.91 425.51 23.19 412.00 23.00 C 398.49 22.81 383.54 24.15 371.00 26.00 C 358.46 27.86 346.57 31.01 335.02 34.02 C 323.48 37.04 313.25 41.01 303.08 46.08 C 292.90 51.14 283.84 55.67 274.75 61.75 C 265.65 67.82 257.96 73.70 249.75 80.75 C 241.54 87.81 235.47 95.25 228.25 103.25 C 221.04 111.26 216.39 120.12 210.30 129.30 C 204.22 138.49 200.15 148.18 195.77 158.77 C 191.39 169.36 187.57 180.14 184.98 191.98 C 182.39 203.82 179.69 217.18 179.00 230.00 C 178.31 242.82 177.99 258.52 180.00 271.00 C 182.01 283.48 183.26 296.60 187.02 307.98 C 190.79 319.35 193.86 330.42 198.07 340.93 C 202.29 351.43 206.95 361.02 212.75 370.25 C 218.54 379.49 221.74 390.18 231.00 395.00
C 238.52 352.74 240.34 298.80 257.02 260.02 C 273.71 221.25 290.41 193.62 322.75 165.75 C 355.09 137.89 387.98 120.71 430.33 112.33 C 472.68 103.95 528.63 107.98 568.00 126.00
C 446.91 96.00 305.70 167.89 275.00 291.00
C 305.10 263.71 328.95 241.95 369.78 232.78 C 410.60 223.60 467.37 229.37 508.99 218.99 C 550.62 208.61 606.36 215.64 644.32 228.68 C 682.28 241.71 710.74 260.34 739.75 286.25 C 768.76 312.16 786.59 343.10 802.00 377.00 Z"/>
</g>
<g fill="#2B4C0E" fill-opacity="0.97" stroke="None">
<path d="
M 211.00 84.00 
C 187.21 95.21 167.48 113.45 146.75 132.75 C 126.02 152.06 110.34 171.69 94.25 195.25 C 78.17 218.82 65.86 243.20 55.32 271.32 C 44.78 299.44 36.82 332.36 33.00 364.00 C 29.18 395.64 31.08 440.69 35.00 472.00 C 38.92 503.30 48.36 534.47 59.68 562.32 C 70.99 590.17 83.30 613.08 100.08 636.92 C 116.86 660.75 132.37 678.20 155.77 696.23 C 179.17 714.26 202.82 725.07 231.33 734.67 C 259.84 744.28 304.00 745.28 333.33 738.33 C 362.66 731.38 390.74 721.30 414.75 704.75 C 438.77 688.21 456.37 671.51 473.75 648.75 C 491.12 625.98 504.03 600.09 512.00 573.00
C 458.25 601.81 399.71 638.26 336.00 636.00 C 272.29 633.74 212.72 609.65 167.75 565.25 C 122.79 520.85 98.67 459.31 98.00 398.00
C 105.09 441.75 124.57 482.45 153.08 516.92 C 181.59 551.39 211.30 574.42 252.77 591.23 C 294.24 608.04 355.74 618.71 399.00 599.00
C 332.19 589.86 268.82 545.58 243.92 480.08 C 219.03 414.58 168.15 365.92 156.00 294.00 C 143.84 222.09 162.79 139.86 211.00 84.00 Z"/>
</g>
<g fill="#88C12C" fill-opacity="0.98" stroke="None">
<path d="
M 591.00 681.00 
C 592.72 683.89 588.46 685.65 586.00 686.00
C 586.16 683.36 589.02 681.38 591.00 680.00
C 633.03 633.57 657.99 573.18 658.00 510.00 C 658.02 446.82 637.30 383.06 590.00 341.00
C 608.65 387.96 610.50 457.13 581.92 499.92 C 553.35 542.72 538.58 583.82 516.32 628.32 C 494.06 672.82 465.19 702.13 423.23 730.23 C 381.27 758.33 320.73 771.03 269.00 770.00
C 308.76 788.24 353.54 801.00 399.00 801.00
C 410.31 799.91 423.76 799.91 435.00 801.00
C 541.68 798.02 637.25 746.76 709.75 668.75 C 782.25 590.74 821.86 471.46 772.31 372.69 C 722.75 273.93 612.41 220.80 505.00 246.00
C 511.84 254.40 522.89 259.70 532.31 265.70 C 541.72 271.69 552.36 276.85 561.30 283.70 C 570.25 290.55 580.07 296.08 588.75 303.25 C 597.43 310.42 604.58 318.21 612.75 326.25 C 620.92 334.29 626.93 342.91 634.08 351.92 C 641.23 360.93 647.55 369.69 652.69 380.31 C 657.84 390.92 663.83 400.32 668.02 411.98 C 672.22 423.63 675.35 436.13 678.01 448.99 C 680.67 461.86 682.27 477.12 683.00 491.00 C 683.74 504.88 681.58 521.25 679.00 534.00 C 676.42 546.75 674.64 560.57 669.98 571.98 C 665.31 583.38 661.79 594.88 655.75 604.75 C 649.72 614.63 644.51 625.18 637.25 633.25 C 630.00 641.33 624.59 653.18 616.25 659.25 C 607.91 665.31 600.84 679.70 591.00 681.00 Z"/>
</g>
<g fill="#E7B329" fill-opacity="0.60" stroke="None">
<path d="
M 398.00 263.00 
C 406.96 263.16 417.99 262.26 427.00 262.00
C 417.39 261.35 407.28 261.85 398.00 263.00 Z"/>
</g>
<g fill="#E39E25" fill-opacity="1.00" stroke="None">
<path d="
M 398.00 263.00 
C 328.36 271.63 272.75 332.26 268.00 402.00
C 268.20 408.84 268.12 418.25 268.00 425.00
C 272.67 483.91 314.05 535.86 370.00 555.00
C 373.05 555.42 375.51 555.42 379.00 557.00
C 386.01 560.17 395.06 560.97 403.00 562.00
C 406.22 561.91 411.06 561.50 415.00 561.00 C 418.94 560.50 424.23 562.78 426.00 563.00
C 503.35 556.19 567.09 492.01 567.00 413.00 C 566.91 333.99 505.54 267.35 427.00 262.00
C 417.99 262.26 406.96 263.16 398.00 263.00 Z"/>
</g>
<g fill="#E3B92B" fill-opacity="0.98" stroke="None">
<path d="
M 268.00 425.00 
C 268.12 418.25 268.20 408.84 268.00 402.00
C 267.50 409.39 267.41 417.62 268.00 425.00 Z"/>
</g>
<g fill="#E8B029" fill-opacity="0.68" stroke="None">
<path d="
M 370.00 555.00 
C 373.01 556.03 375.96 556.22 379.00 557.00
C 375.51 555.42 373.05 555.42 370.00 555.00 Z"/>
</g>
<g fill="#E6B229" fill-opacity="0.75" stroke="None">
<path d="
M 403.00 562.00 
C 410.37 562.96 418.33 563.67 426.00 563.00
C 424.23 562.78 418.94 560.50 415.00 561.00 C 411.06 561.50 406.22 561.91 403.00 562.00 Z"/>
</g>
<g fill="#86BE2D" fill-opacity="0.55" stroke="None">
<path d="
M 591.00 681.00 
C 591.00 681.00 590.76 680.16 591.00 680.00
C 589.02 681.38 586.16 683.36 586.00 686.00
C 588.46 685.65 592.72 683.89 591.00 681.00 Z"/>
</g>
<g fill="#84BE2C" fill-opacity="0.85" stroke="None">
<path d="
M 399.00 801.00 
C 400.67 801.00 402.33 801.00 404.00 801.00
C 412.33 801.00 420.67 801.00 429.00 801.00
C 431.00 801.00 433.00 801.00 435.00 801.00
C 423.76 799.91 410.31 799.91 399.00 801.00 Z"/>
</g>
<g fill="#7E7F1F" fill-opacity="0.03" stroke="None">
<path d="
M 429.00 801.00 
C 420.67 801.00 412.33 801.00 404.00 801.00
C 411.80 801.84 421.14 801.76 429.00 801.00 Z"/>
</g>
</svg>