<svg width="623" height="123" viewBox="0 0 623 123" fill="none" xmlns="http://www.w3.org/2000/svg">
<path d="M29.2373 100.977C24.68 100.977 20.5524 99.8047 16.8545 97.4609C13.1826 95.0911 10.266 91.6146 8.10449 87.0312C5.96908 82.4219 4.90137 76.7708 4.90137 70.0781C4.90137 63.2031 6.00814 57.487 8.22168 52.9297C10.4352 48.3464 13.3779 44.9219 17.0498 42.6563C20.7477 40.3646 24.7972 39.2188 29.1982 39.2188C32.5576 39.2188 35.3571 39.7917 37.5967 40.9375C39.8623 42.0573 41.6852 43.4635 43.0654 45.1562C44.4717 46.8229 45.5394 48.4635 46.2686 50.0781H46.7764V20H63.3779V100H46.9717V90.3906H46.2686C45.4873 92.0573 44.3805 93.7109 42.9482 95.3516C41.542 96.9661 39.7061 98.3073 37.4404 99.375C35.2008 100.443 32.4665 100.977 29.2373 100.977ZM34.5107 87.7344C37.193 87.7344 39.4587 87.0052 41.3076 85.5469C43.1826 84.0625 44.6149 81.9922 45.6045 79.3359C46.6201 76.6797 47.1279 73.5677 47.1279 70C47.1279 66.4323 46.6331 63.3333 45.6436 60.7031C44.654 58.0729 43.2217 56.0417 41.3467 54.6094C39.4717 53.1771 37.193 52.4609 34.5107 52.4609C31.7764 52.4609 29.4717 53.2031 27.5967 54.6875C25.7217 56.1719 24.3024 58.2292 23.3389 60.8594C22.3753 63.4896 21.8936 66.5365 21.8936 70C21.8936 73.4896 22.3753 76.5755 23.3389 79.2578C24.3285 81.9141 25.7477 83.9974 27.5967 85.5078C29.4717 86.9922 31.7764 87.7344 34.5107 87.7344ZM101.403 101.172C95.2314 101.172 89.9189 99.9219 85.4658 97.4219C81.0387 94.8958 77.6273 91.3281 75.2314 86.7187C72.8356 82.0833 71.6377 76.6016 71.6377 70.2734C71.6377 64.1016 72.8356 58.6849 75.2314 54.0234C77.6273 49.362 80.9997 45.7292 85.3486 43.125C89.7236 40.5208 94.8538 39.2188 100.739 39.2188C104.698 39.2188 108.382 39.8568 111.794 41.1328C115.231 42.3828 118.226 44.2708 120.778 46.7969C123.356 49.3229 125.362 52.5 126.794 56.3281C128.226 60.1302 128.942 64.5833 128.942 69.6875V74.2578H78.2783V63.9453H113.278C113.278 61.5495 112.757 59.4271 111.716 57.5781C110.674 55.7292 109.229 54.2839 107.38 53.2422C105.557 52.1745 103.435 51.6406 101.013 51.6406C98.4867 51.6406 96.2471 52.2266 94.2939 53.3984C92.3669 54.5443 90.8564 56.0937 89.7627 58.0469C88.6689 59.974 88.1091 62.1224 88.083 64.4922V74.2969C88.083 77.2656 88.6299 79.8307 89.7236 81.9922C90.8434 84.1536 92.4189 85.8203 94.4502 86.9922C96.4814 88.1641 98.8903 88.75 101.677 88.75C103.526 88.75 105.218 88.4896 106.755 87.9688C108.291 87.4479 109.606 86.6667 110.7 85.625C111.794 84.5833 112.627 83.3073 113.2 81.7969L128.591 82.8125C127.81 86.5104 126.208 89.7396 123.786 92.5C121.39 95.2344 118.291 97.3698 114.489 98.9063C110.713 100.417 106.351 101.172 101.403 101.172ZM164.146 101.172C157.974 101.172 152.661 99.9219 148.208 97.4219C143.781 94.8958 140.369 91.3281 137.974 86.7187C135.578 82.0833 134.38 76.6016 134.38 70.2734C134.38 64.1016 135.578 58.6849 137.974 54.0234C140.369 49.362 143.742 45.7292 148.091 43.125C152.466 40.5208 157.596 39.2188 163.481 39.2188C167.44 39.2188 171.125 39.8568 174.536 41.1328C177.974 42.3828 180.968 44.2708 183.521 46.7969C186.099 49.3229 188.104 52.5 189.536 56.3281C190.968 60.1302 191.685 64.5833 191.685 69.6875V74.2578H141.021V63.9453H176.021C176.021 61.5495 175.5 59.4271 174.458 57.5781C173.416 55.7292 171.971 54.2839 170.122 53.2422C168.299 52.1745 166.177 51.6406 163.755 51.6406C161.229 51.6406 158.989 52.2266 157.036 53.3984C155.109 54.5443 153.599 56.0937 152.505 58.0469C151.411 59.974 150.851 62.1224 150.825 64.4922V74.2969C150.825 77.2656 151.372 79.8307 152.466 81.9922C153.586 84.1536 155.161 85.8203 157.192 86.9922C159.224 88.1641 161.632 88.75 164.419 88.75C166.268 88.75 167.961 88.4896 169.497 87.9688C171.034 87.4479 172.349 86.6667 173.442 85.625C174.536 84.5833 175.369 83.3073 175.942 81.7969L191.333 82.8125C190.552 86.5104 188.95 89.7396 186.528 92.5C184.132 95.2344 181.034 97.3698 177.231 98.9063C173.455 100.417 169.093 101.172 164.146 101.172ZM199.544 122.5V40H215.95V50.0781H216.692C217.422 48.4635 218.476 46.8229 219.856 45.1562C221.263 43.4635 223.086 42.0573 225.325 40.9375C227.591 39.7917 230.403 39.2188 233.763 39.2188C238.138 39.2188 242.174 40.3646 245.872 42.6563C249.57 44.9219 252.526 48.3464 254.739 52.9297C256.953 57.487 258.06 63.2031 258.06 70.0781C258.06 76.7708 256.979 82.4219 254.817 87.0312C252.682 91.6146 249.765 95.0911 246.067 97.4609C242.396 99.8047 238.281 100.977 233.724 100.977C230.494 100.977 227.747 100.443 225.481 99.375C223.242 98.3073 221.406 96.9661 219.974 95.3516C218.541 93.7109 217.448 92.0573 216.692 90.3906H216.185V122.5H199.544ZM215.833 70C215.833 73.5677 216.328 76.6797 217.317 79.3359C218.307 81.9922 219.739 84.0625 221.614 85.5469C223.489 87.0052 225.768 87.7344 228.45 87.7344C231.159 87.7344 233.45 86.9922 235.325 85.5078C237.2 83.9974 238.619 81.9141 239.583 79.2578C240.573 76.5755 241.067 73.4896 241.067 70C241.067 66.5365 240.586 63.4896 239.622 60.8594C238.659 58.2292 237.239 56.1719 235.364 54.6875C233.489 53.2031 231.185 52.4609 228.45 52.4609C225.742 52.4609 223.45 53.1771 221.575 54.6094C219.726 56.0417 218.307 58.0729 217.317 60.7031C216.328 63.3333 215.833 66.4323 215.833 70Z" fill="white"/>
<path d="M424.971 57.1094L409.736 58.0469C409.476 56.7448 408.916 55.5729 408.057 54.5312C407.197 53.4635 406.064 52.6172 404.658 51.9922C403.278 51.3411 401.624 51.0156 399.697 51.0156C397.119 51.0156 394.945 51.5625 393.174 52.6562C391.403 53.724 390.518 55.1562 390.518 56.9531C390.518 58.3854 391.09 59.5964 392.236 60.5859C393.382 61.5755 395.348 62.3698 398.135 62.9687L408.994 65.1562C414.827 66.3542 419.176 68.2812 422.041 70.9375C424.906 73.5937 426.338 77.0833 426.338 81.4062C426.338 85.3385 425.179 88.7891 422.861 91.7578C420.57 94.7266 417.419 97.0443 413.408 98.7109C409.424 100.352 404.827 101.172 399.619 101.172C391.676 101.172 385.348 99.5182 380.635 96.2109C375.947 92.8776 373.2 88.3464 372.393 82.6172L388.76 81.7578C389.255 84.1797 390.452 86.0286 392.354 87.3047C394.255 88.5547 396.689 89.1797 399.658 89.1797C402.575 89.1797 404.919 88.6198 406.689 87.5C408.486 86.3542 409.398 84.8828 409.424 83.0859C409.398 81.5755 408.76 80.3385 407.51 79.375C406.26 78.3854 404.333 77.6302 401.729 77.1094L391.338 75.0391C385.479 73.8672 381.117 71.8359 378.252 68.9453C375.413 66.0547 373.994 62.3698 373.994 57.8906C373.994 54.0365 375.036 50.7161 377.119 47.9297C379.229 45.1432 382.184 42.9948 385.986 41.4844C389.814 39.974 394.294 39.2188 399.424 39.2188C407.002 39.2188 412.965 40.8203 417.314 44.0234C421.689 47.2266 424.242 51.5885 424.971 57.1094ZM461.16 101.172C454.988 101.172 449.676 99.9219 445.223 97.4219C440.796 94.8958 437.384 91.3281 434.988 86.7187C432.592 82.0833 431.395 76.6016 431.395 70.2734C431.395 64.1016 432.592 58.6849 434.988 54.0234C437.384 49.362 440.757 45.7292 445.105 43.125C449.48 40.5208 454.611 39.2188 460.496 39.2188C464.454 39.2188 468.139 39.8568 471.551 41.1328C474.988 42.3828 477.983 44.2708 480.535 46.7969C483.113 49.3229 485.118 52.5 486.551 56.3281C487.983 60.1302 488.699 64.5833 488.699 69.6875V74.2578H438.035V63.9453H473.035C473.035 61.5495 472.514 59.4271 471.473 57.5781C470.431 55.7292 468.986 54.2839 467.137 53.2422C465.314 52.1745 463.191 51.6406 460.77 51.6406C458.243 51.6406 456.004 52.2266 454.051 53.3984C452.124 54.5443 450.613 56.0937 449.52 58.0469C448.426 59.974 447.866 62.1224 447.84 64.4922V74.2969C447.84 77.2656 448.387 79.8307 449.48 81.9922C450.6 84.1536 452.176 85.8203 454.207 86.9922C456.238 88.1641 458.647 88.75 461.434 88.75C463.283 88.75 464.975 88.4896 466.512 87.9688C468.048 87.4479 469.363 86.6667 470.457 85.625C471.551 84.5833 472.384 83.3073 472.957 81.7969L488.348 82.8125C487.566 86.5104 485.965 89.7396 483.543 92.5C481.147 95.2344 478.048 97.3698 474.246 98.9063C470.47 100.417 466.108 101.172 461.16 101.172ZM523.902 101.172C517.73 101.172 512.418 99.9219 507.965 97.4219C503.538 94.8958 500.126 91.3281 497.73 86.7187C495.335 82.0833 494.137 76.6016 494.137 70.2734C494.137 64.1016 495.335 58.6849 497.73 54.0234C500.126 49.362 503.499 45.7292 507.848 43.125C512.223 40.5208 517.353 39.2188 523.238 39.2188C527.197 39.2188 530.882 39.8568 534.293 41.1328C537.73 42.3828 540.725 44.2708 543.277 46.7969C545.855 49.3229 547.861 52.5 549.293 56.3281C550.725 60.1302 551.441 64.5833 551.441 69.6875V74.2578H500.777V63.9453H535.777C535.777 61.5495 535.257 59.4271 534.215 57.5781C533.173 55.7292 531.728 54.2839 529.879 53.2422C528.056 52.1745 525.934 51.6406 523.512 51.6406C520.986 51.6406 518.746 52.2266 516.793 53.3984C514.866 54.5443 513.355 56.0937 512.262 58.0469C511.168 59.974 510.608 62.1224 510.582 64.4922V74.2969C510.582 77.2656 511.129 79.8307 512.223 81.9922C513.342 84.1536 514.918 85.8203 516.949 86.9922C518.98 88.1641 521.389 88.75 524.176 88.75C526.025 88.75 527.717 88.4896 529.254 87.9688C530.79 87.4479 532.105 86.6667 533.199 85.625C534.293 84.5833 535.126 83.3073 535.699 81.7969L551.09 82.8125C550.309 86.5104 548.707 89.7396 546.285 92.5C543.889 95.2344 540.79 97.3698 536.988 98.9063C533.212 100.417 528.85 101.172 523.902 101.172ZM581.41 100.977C576.853 100.977 572.725 99.8047 569.027 97.4609C565.355 95.0911 562.439 91.6146 560.277 87.0312C558.142 82.4219 557.074 76.7708 557.074 70.0781C557.074 63.2031 558.181 57.487 560.395 52.9297C562.608 48.3464 565.551 44.9219 569.223 42.6563C572.921 40.3646 576.97 39.2188 581.371 39.2188C584.73 39.2188 587.53 39.7917 589.77 40.9375C592.035 42.0573 593.858 43.4635 595.238 45.1562C596.645 46.8229 597.712 48.4635 598.441 50.0781H598.949V20H615.551V100H599.145V90.3906H598.441C597.66 92.0573 596.553 93.7109 595.121 95.3516C593.715 96.9661 591.879 98.3073 589.613 99.375C587.374 100.443 584.639 100.977 581.41 100.977ZM586.684 87.7344C589.366 87.7344 591.632 87.0052 593.48 85.5469C595.355 84.0625 596.788 81.9922 597.777 79.3359C598.793 76.6797 599.301 73.5677 599.301 70C599.301 66.4323 598.806 63.3333 597.816 60.7031C596.827 58.0729 595.395 56.0417 593.52 54.6094C591.645 53.1771 589.366 52.4609 586.684 52.4609C583.949 52.4609 581.645 53.2031 579.77 54.6875C577.895 56.1719 576.475 58.2292 575.512 60.8594C574.548 63.4896 574.066 66.5365 574.066 70C574.066 73.4896 574.548 76.5755 575.512 79.2578C576.501 81.9141 577.921 83.9974 579.77 85.5078C581.645 86.9922 583.949 87.7344 586.684 87.7344Z" fill="white"/>
<path d="M314.548 47.5286C304.936 47.5286 297.129 55.363 297 65.0771H332.097C331.968 55.363 324.161 47.5286 314.549 47.5286H314.548Z" fill="white"/>
<path d="M331.946 65C331.947 65.1019 331.948 65.2034 331.948 65.3058C331.948 75.2021 320.693 83.5928 316.271 86.5073C315.216 87.2032 313.82 87.2032 312.765 86.5073C308.344 83.5928 297.089 75.2021 297.089 65.3058C297.089 65.2039 297.089 65.1019 297.091 65H274.813C274.344 65 273.971 65.3786 274.002 65.826C275.38 86.0245 292.982 102 314.495 102C336.007 102 353.708 85.9339 354.999 65.6544C355.021 65.2999 354.728 65 354.356 65H331.946Z" fill="white"/>
<path d="M320.209 43C318.134 47.3398 316.058 51.68 313.982 56.0198L320.209 43Z" fill="white"/>
<path d="M320.209 43C318.134 47.3398 316.058 51.68 313.982 56.0198" stroke="white" stroke-width="5" stroke-linecap="round" stroke-linejoin="round"/>
</svg>
