<?xml version="1.0" encoding="utf-8"?>
<!-- Generator: Adobe Illustrator 26.3.1, SVG Export Plug-In . SVG Version: 6.00 Build 0)  -->
<svg version="1.1" id="Layer_1" xmlns="http://www.w3.org/2000/svg" xmlns:xlink="http://www.w3.org/1999/xlink" x="0px" y="0px"
	 viewBox="0 0 257.1 67.9" style="enable-background:new 0 0 257.1 67.9;" xml:space="preserve">
<style type="text/css">
	.st0{fill:none;stroke:#000000;stroke-width:2;stroke-linecap:round;stroke-miterlimit:10;}
</style>
<g>
	<path d="M33.2,47h-8.5l-6.5-10.1V47h-6.8V20.9H22c1.5,0,2.7,0.2,3.8,0.6c1.1,0.4,2,1,2.7,1.7c0.7,0.7,1.2,1.6,1.6,2.6
		c0.4,1,0.5,2,0.5,3.1c0,2-0.5,3.6-1.4,4.8c-1,1.2-2.4,2.1-4.2,2.5L33.2,47z M18.2,32.5h1.3c1.3,0,2.4-0.3,3.1-0.8
		c0.7-0.6,1.1-1.4,1.1-2.4c0-1-0.4-1.8-1.1-2.4c-0.7-0.6-1.7-0.8-3.1-0.8h-1.3V32.5z"/>
	<path d="M97.8,42.5h-9.7L86.5,47h-7.2l10-26.1h7.4l10,26.1h-7.2L97.8,42.5z M96,37.3L93,28.6l-3.1,8.7H96z"/>
	<g>
		<g>
			<path d="M134.1,30.3h-3.2l-2.5-3.8v3.8h-2.6v-9.9h4c0.6,0,1,0.1,1.4,0.2c0.4,0.2,0.7,0.4,1,0.7c0.3,0.3,0.5,0.6,0.6,1
				c0.1,0.4,0.2,0.8,0.2,1.2c0,0.8-0.2,1.4-0.5,1.8c-0.4,0.5-0.9,0.8-1.6,1L134.1,30.3z M128.4,24.8h0.5c0.5,0,0.9-0.1,1.2-0.3
				c0.3-0.2,0.4-0.5,0.4-0.9c0-0.4-0.1-0.7-0.4-0.9c-0.3-0.2-0.7-0.3-1.2-0.3h-0.5V24.8z"/>
			<path d="M136.9,27.3c0,1,0.5,1.5,1.4,1.5c0.5,0,0.9-0.2,1.2-0.6h2.3c-0.5,1.5-1.6,2.3-3.5,2.3c-0.6,0-1.1-0.1-1.6-0.3
				c-0.5-0.2-0.9-0.4-1.2-0.7c-0.3-0.3-0.6-0.7-0.8-1.1c-0.2-0.4-0.3-0.9-0.3-1.5c0-0.6,0.1-1.1,0.3-1.5c0.2-0.5,0.4-0.8,0.7-1.1
				c0.3-0.3,0.7-0.6,1.2-0.7c0.5-0.2,1-0.3,1.6-0.3c0.6,0,1.1,0.1,1.5,0.3c0.5,0.2,0.8,0.4,1.2,0.7c0.3,0.3,0.6,0.7,0.7,1.2
				c0.2,0.5,0.2,1,0.2,1.6v0.2H136.9z M139.7,25.9c-0.1-0.3-0.2-0.6-0.5-0.8c-0.2-0.2-0.5-0.3-0.9-0.3c-0.4,0-0.7,0.1-0.9,0.3
				c-0.2,0.2-0.4,0.5-0.4,0.8H139.7z"/>
			<path d="M150.8,23.5v6.3c0,0.4,0,0.7-0.1,1c0,0.3-0.1,0.6-0.2,0.8c-0.1,0.3-0.3,0.6-0.5,0.8c-0.2,0.2-0.5,0.5-0.8,0.6
				c-0.3,0.2-0.7,0.3-1.1,0.4c-0.4,0.1-0.8,0.2-1.3,0.2c-0.5,0-1-0.1-1.4-0.2c-0.4-0.1-0.8-0.3-1.1-0.5c-0.3-0.2-0.6-0.5-0.8-0.8
				c-0.2-0.3-0.4-0.6-0.4-1h2.7c0.2,0.4,0.5,0.7,1.1,0.7c0.5,0,0.9-0.1,1.1-0.4c0.3-0.3,0.4-0.7,0.4-1.2v-0.6
				c-0.2,0.2-0.3,0.3-0.5,0.4c-0.2,0.1-0.3,0.2-0.5,0.3c-0.2,0.1-0.3,0.1-0.5,0.2c-0.2,0-0.4,0-0.6,0c-0.5,0-0.9-0.1-1.3-0.2
				c-0.4-0.2-0.8-0.4-1-0.7c-0.3-0.3-0.5-0.7-0.7-1.1c-0.2-0.4-0.2-0.9-0.2-1.4c0-0.5,0.1-1,0.3-1.4c0.2-0.4,0.4-0.8,0.7-1.2
				c0.3-0.3,0.7-0.6,1.1-0.8c0.4-0.2,0.9-0.3,1.4-0.3c0.8,0,1.5,0.3,2,0.9v-0.7H150.8z M145.5,26.9c0,0.2,0,0.4,0.1,0.6
				c0.1,0.2,0.2,0.4,0.3,0.5c0.1,0.1,0.3,0.2,0.5,0.3c0.2,0.1,0.4,0.1,0.6,0.1c0.2,0,0.4,0,0.6-0.1c0.2-0.1,0.3-0.2,0.5-0.3
				c0.1-0.1,0.2-0.3,0.3-0.5c0.1-0.2,0.1-0.4,0.1-0.6c0-0.2,0-0.4-0.1-0.6c-0.1-0.2-0.2-0.3-0.3-0.5c-0.1-0.1-0.3-0.2-0.5-0.3
				c-0.2-0.1-0.4-0.1-0.6-0.1c-0.2,0-0.4,0-0.6,0.1c-0.2,0.1-0.3,0.2-0.5,0.3c-0.1,0.1-0.3,0.3-0.3,0.5
				C145.5,26.5,145.5,26.7,145.5,26.9z"/>
			<path d="M154.7,27.3c0,1,0.5,1.5,1.4,1.5c0.5,0,0.9-0.2,1.2-0.6h2.3c-0.5,1.5-1.6,2.3-3.5,2.3c-0.6,0-1.1-0.1-1.6-0.3
				c-0.5-0.2-0.9-0.4-1.2-0.7c-0.3-0.3-0.6-0.7-0.8-1.1c-0.2-0.4-0.3-0.9-0.3-1.5c0-0.6,0.1-1.1,0.3-1.5c0.2-0.5,0.4-0.8,0.7-1.1
				c0.3-0.3,0.7-0.6,1.2-0.7c0.5-0.2,1-0.3,1.6-0.3c0.6,0,1.1,0.1,1.5,0.3c0.5,0.2,0.8,0.4,1.2,0.7c0.3,0.3,0.6,0.7,0.7,1.2
				c0.2,0.5,0.2,1,0.2,1.6v0.2H154.7z M157.5,25.9c-0.1-0.3-0.2-0.6-0.5-0.8c-0.2-0.2-0.5-0.3-0.9-0.3c-0.4,0-0.7,0.1-0.9,0.3
				c-0.2,0.2-0.4,0.5-0.4,0.8H157.5z"/>
			<path d="M161,23.5h2.4v0.9c0.3-0.4,0.7-0.7,1-0.8c0.3-0.1,0.7-0.2,1.2-0.2c0.5,0,0.9,0.1,1.2,0.2c0.3,0.2,0.6,0.4,0.9,0.6
				c0.2,0.2,0.3,0.5,0.4,0.8c0.1,0.3,0.1,0.6,0.1,1v4.3h-2.4v-3.4c0-0.3,0-0.6-0.1-0.8c0-0.2-0.1-0.4-0.3-0.5
				c-0.1-0.1-0.2-0.2-0.4-0.2c-0.1,0-0.3-0.1-0.4-0.1c-0.4,0-0.7,0.1-0.9,0.4c-0.2,0.2-0.3,0.6-0.3,1v3.6H161V23.5z"/>
			<path d="M171.9,27.3c0,1,0.5,1.5,1.4,1.5c0.5,0,0.9-0.2,1.2-0.6h2.3c-0.5,1.5-1.6,2.3-3.5,2.3c-0.6,0-1.1-0.1-1.6-0.3
				c-0.5-0.2-0.9-0.4-1.2-0.7c-0.3-0.3-0.6-0.7-0.8-1.1c-0.2-0.4-0.3-0.9-0.3-1.5c0-0.6,0.1-1.1,0.3-1.5c0.2-0.5,0.4-0.8,0.7-1.1
				c0.3-0.3,0.7-0.6,1.2-0.7c0.5-0.2,1-0.3,1.6-0.3c0.6,0,1.1,0.1,1.5,0.3c0.5,0.2,0.8,0.4,1.2,0.7c0.3,0.3,0.6,0.7,0.7,1.2
				c0.2,0.5,0.2,1,0.2,1.6v0.2H171.9z M174.7,25.9c-0.1-0.3-0.2-0.6-0.5-0.8c-0.2-0.2-0.5-0.3-0.9-0.3c-0.4,0-0.7,0.1-0.9,0.3
				c-0.2,0.2-0.4,0.5-0.4,0.8H174.7z"/>
			<path d="M178.2,23.5h2.4v1.1c0.3-0.4,0.6-0.7,0.9-0.9c0.4-0.2,0.8-0.3,1.3-0.3c0.1,0,0.1,0,0.2,0c0.1,0,0.2,0,0.3,0v2.3
				c-0.3-0.2-0.7-0.2-1-0.2c-0.6,0-1,0.2-1.2,0.5c-0.3,0.3-0.4,0.8-0.4,1.4v2.9h-2.4V23.5z"/>
			<path d="M189.6,23.5h2.4v6.7h-2.4v-0.7c-0.5,0.6-1.2,1-2.1,1c-0.5,0-0.9-0.1-1.4-0.3c-0.4-0.2-0.8-0.4-1.1-0.8
				c-0.3-0.3-0.5-0.7-0.7-1.1c-0.2-0.4-0.3-0.9-0.3-1.4c0-0.5,0.1-0.9,0.2-1.4s0.4-0.8,0.7-1.1c0.3-0.3,0.7-0.6,1.1-0.8
				c0.4-0.2,0.9-0.3,1.4-0.3c0.8,0,1.5,0.3,2.1,0.9V23.5z M186.6,26.9c0,0.2,0,0.4,0.1,0.6s0.2,0.4,0.3,0.5c0.1,0.1,0.3,0.2,0.5,0.3
				c0.2,0.1,0.4,0.1,0.6,0.1c0.2,0,0.4,0,0.6-0.1c0.2-0.1,0.3-0.2,0.5-0.3c0.1-0.1,0.2-0.3,0.3-0.5c0.1-0.2,0.1-0.4,0.1-0.6
				c0-0.2,0-0.4-0.1-0.6c-0.1-0.2-0.2-0.4-0.3-0.5c-0.1-0.1-0.3-0.2-0.5-0.3c-0.2-0.1-0.4-0.1-0.6-0.1c-0.2,0-0.4,0-0.6,0.1
				c-0.2,0.1-0.3,0.2-0.5,0.3c-0.1,0.1-0.2,0.3-0.3,0.5S186.6,26.7,186.6,26.9z"/>
			<path d="M196.3,25.5v4.7h-2.4v-4.7h-0.8v-2h0.8v-2h2.4v2h1.4v2H196.3z"/>
			<path d="M198.5,21c0-0.2,0-0.4,0.1-0.5c0.1-0.2,0.2-0.3,0.3-0.4c0.1-0.1,0.3-0.2,0.4-0.3c0.2-0.1,0.3-0.1,0.5-0.1
				c0.2,0,0.4,0,0.5,0.1c0.2,0.1,0.3,0.2,0.4,0.3c0.1,0.1,0.2,0.3,0.3,0.4c0.1,0.2,0.1,0.3,0.1,0.5c0,0.2,0,0.4-0.1,0.5
				c-0.1,0.2-0.2,0.3-0.3,0.4c-0.1,0.1-0.3,0.2-0.4,0.3c-0.2,0.1-0.3,0.1-0.5,0.1c-0.2,0-0.4,0-0.5-0.1c-0.2-0.1-0.3-0.2-0.4-0.3
				c-0.1-0.1-0.2-0.3-0.3-0.4C198.6,21.3,198.5,21.1,198.5,21z M201.1,23.5v6.7h-2.4v-6.7H201.1z"/>
			<path d="M204.7,23.5l1.6,3.5l1.6-3.5h2.7l-3.5,6.7h-1.6l-3.5-6.7H204.7z"/>
			<path d="M213.2,27.3c0,1,0.5,1.5,1.4,1.5c0.5,0,0.9-0.2,1.2-0.6h2.3c-0.5,1.5-1.6,2.3-3.5,2.3c-0.6,0-1.1-0.1-1.6-0.3
				c-0.5-0.2-0.9-0.4-1.2-0.7c-0.3-0.3-0.6-0.7-0.8-1.1c-0.2-0.4-0.3-0.9-0.3-1.5c0-0.6,0.1-1.1,0.3-1.5c0.2-0.5,0.4-0.8,0.7-1.1
				c0.3-0.3,0.7-0.6,1.2-0.7c0.5-0.2,1-0.3,1.6-0.3c0.6,0,1.1,0.1,1.5,0.3c0.5,0.2,0.8,0.4,1.2,0.7c0.3,0.3,0.6,0.7,0.7,1.2
				c0.2,0.5,0.2,1,0.2,1.6v0.2H213.2z M216,25.9c-0.1-0.3-0.2-0.6-0.5-0.8c-0.2-0.2-0.5-0.3-0.9-0.3c-0.4,0-0.7,0.1-0.9,0.3
				c-0.2,0.2-0.4,0.5-0.4,0.8H216z"/>
		</g>
		<g>
			<path d="M125.8,41.1c0-0.7,0.1-1.4,0.4-2.1c0.3-0.6,0.6-1.2,1.1-1.7c0.5-0.5,1.1-0.8,1.7-1.1c0.7-0.3,1.4-0.4,2.2-0.4
				c0.8,0,1.5,0.1,2.2,0.4c0.7,0.3,1.3,0.6,1.7,1.1c0.5,0.5,0.9,1,1.1,1.7c0.3,0.6,0.4,1.3,0.4,2.1c0,0.7-0.1,1.4-0.4,2.1
				c-0.3,0.6-0.6,1.2-1.1,1.7c-0.5,0.5-1.1,0.8-1.7,1.1c-0.7,0.3-1.4,0.4-2.2,0.4c-0.8,0-1.5-0.1-2.2-0.4c-0.7-0.3-1.2-0.6-1.7-1.1
				c-0.5-0.5-0.9-1-1.1-1.7C126,42.5,125.8,41.8,125.8,41.1z M128.5,41.1c0,0.4,0.1,0.8,0.2,1.1c0.1,0.3,0.3,0.6,0.6,0.9
				c0.3,0.2,0.5,0.4,0.9,0.6c0.3,0.1,0.7,0.2,1.1,0.2s0.7-0.1,1.1-0.2c0.3-0.1,0.6-0.3,0.9-0.6c0.3-0.2,0.5-0.5,0.6-0.9
				c0.1-0.3,0.2-0.7,0.2-1.1c0-0.4-0.1-0.8-0.2-1.1c-0.1-0.3-0.4-0.6-0.6-0.9c-0.3-0.2-0.6-0.4-0.9-0.6c-0.3-0.1-0.7-0.2-1.1-0.2
				s-0.7,0.1-1.1,0.2c-0.3,0.1-0.6,0.3-0.9,0.6c-0.3,0.2-0.5,0.5-0.6,0.9C128.6,40.3,128.5,40.7,128.5,41.1z"/>
			<path d="M138.2,39.3h2.4v1.1c0.3-0.4,0.6-0.7,0.9-0.9c0.4-0.2,0.8-0.3,1.3-0.3c0.1,0,0.1,0,0.2,0c0.1,0,0.2,0,0.3,0v2.3
				c-0.3-0.2-0.7-0.2-1-0.2c-0.6,0-1,0.2-1.2,0.5c-0.3,0.3-0.4,0.8-0.4,1.4V46h-2.4V39.3z"/>
			<path d="M151.9,39.3v6.3c0,0.4,0,0.7-0.1,1c0,0.3-0.1,0.6-0.2,0.8c-0.1,0.3-0.3,0.6-0.5,0.8c-0.2,0.2-0.5,0.5-0.8,0.6
				c-0.3,0.2-0.7,0.3-1.1,0.4c-0.4,0.1-0.8,0.2-1.3,0.2c-0.5,0-1-0.1-1.4-0.2c-0.4-0.1-0.8-0.3-1.1-0.5c-0.3-0.2-0.6-0.5-0.8-0.8
				c-0.2-0.3-0.4-0.6-0.4-1h2.7c0.2,0.4,0.5,0.7,1.1,0.7c0.5,0,0.9-0.1,1.1-0.4c0.3-0.3,0.4-0.7,0.4-1.2v-0.6
				c-0.2,0.2-0.3,0.3-0.5,0.4c-0.2,0.1-0.3,0.2-0.5,0.3c-0.2,0.1-0.3,0.1-0.5,0.2c-0.2,0-0.4,0-0.6,0c-0.5,0-0.9-0.1-1.3-0.2
				c-0.4-0.2-0.8-0.4-1-0.7c-0.3-0.3-0.5-0.7-0.7-1.1c-0.2-0.4-0.2-0.9-0.2-1.4c0-0.5,0.1-1,0.3-1.4c0.2-0.4,0.4-0.8,0.7-1.2
				s0.7-0.6,1.1-0.8c0.4-0.2,0.9-0.3,1.4-0.3c0.8,0,1.5,0.3,2,0.9v-0.7H151.9z M146.6,42.6c0,0.2,0,0.4,0.1,0.6
				c0.1,0.2,0.2,0.4,0.3,0.5c0.1,0.1,0.3,0.2,0.5,0.3s0.4,0.1,0.6,0.1c0.2,0,0.4,0,0.6-0.1c0.2-0.1,0.3-0.2,0.5-0.3
				c0.1-0.1,0.2-0.3,0.3-0.5c0.1-0.2,0.1-0.4,0.1-0.6c0-0.2,0-0.4-0.1-0.6c-0.1-0.2-0.2-0.3-0.3-0.5c-0.1-0.1-0.3-0.2-0.5-0.3
				c-0.2-0.1-0.4-0.1-0.6-0.1c-0.2,0-0.4,0-0.6,0.1c-0.2,0.1-0.3,0.2-0.5,0.3c-0.1,0.1-0.3,0.3-0.3,0.5
				C146.6,42.2,146.6,42.4,146.6,42.6z"/>
			<path d="M158.8,39.3h2.4V46h-2.4v-0.7c-0.5,0.6-1.2,1-2.1,1c-0.5,0-0.9-0.1-1.4-0.3c-0.4-0.2-0.8-0.4-1.1-0.8
				c-0.3-0.3-0.5-0.7-0.7-1.1c-0.2-0.4-0.3-0.9-0.3-1.4c0-0.5,0.1-0.9,0.2-1.4c0.2-0.4,0.4-0.8,0.7-1.1c0.3-0.3,0.7-0.6,1.1-0.8
				c0.4-0.2,0.9-0.3,1.4-0.3c0.8,0,1.5,0.3,2.1,0.9V39.3z M155.9,42.6c0,0.2,0,0.4,0.1,0.6c0.1,0.2,0.2,0.4,0.3,0.5
				c0.1,0.1,0.3,0.2,0.5,0.3c0.2,0.1,0.4,0.1,0.6,0.1c0.2,0,0.4,0,0.6-0.1c0.2-0.1,0.3-0.2,0.5-0.3c0.1-0.1,0.2-0.3,0.3-0.5
				c0.1-0.2,0.1-0.4,0.1-0.6c0-0.2,0-0.4-0.1-0.6c-0.1-0.2-0.2-0.4-0.3-0.5c-0.1-0.1-0.3-0.2-0.5-0.3c-0.2-0.1-0.4-0.1-0.6-0.1
				c-0.2,0-0.4,0-0.6,0.1c-0.2,0.1-0.3,0.2-0.5,0.3c-0.1,0.1-0.2,0.3-0.3,0.5C155.9,42.2,155.9,42.4,155.9,42.6z"/>
			<path d="M162.8,39.3h2.4v0.9c0.3-0.4,0.7-0.7,1-0.8c0.3-0.1,0.7-0.2,1.2-0.2c0.5,0,0.9,0.1,1.2,0.2c0.3,0.2,0.6,0.4,0.9,0.6
				c0.2,0.2,0.3,0.5,0.4,0.8c0.1,0.3,0.1,0.6,0.1,1V46h-2.4v-3.4c0-0.3,0-0.6-0.1-0.8c0-0.2-0.1-0.4-0.3-0.5
				c-0.1-0.1-0.2-0.2-0.4-0.2c-0.1,0-0.3-0.1-0.4-0.1c-0.4,0-0.7,0.1-0.9,0.4c-0.2,0.2-0.3,0.6-0.3,1V46h-2.4V39.3z"/>
			<path d="M171.4,36.7c0-0.2,0-0.4,0.1-0.5c0.1-0.2,0.2-0.3,0.3-0.4c0.1-0.1,0.3-0.2,0.4-0.3c0.2-0.1,0.3-0.1,0.5-0.1
				c0.2,0,0.4,0,0.5,0.1c0.2,0.1,0.3,0.2,0.4,0.3c0.1,0.1,0.2,0.3,0.3,0.4c0.1,0.2,0.1,0.3,0.1,0.5c0,0.2,0,0.4-0.1,0.5
				c-0.1,0.2-0.2,0.3-0.3,0.4c-0.1,0.1-0.3,0.2-0.4,0.3c-0.2,0.1-0.3,0.1-0.5,0.1c-0.2,0-0.4,0-0.5-0.1c-0.2-0.1-0.3-0.2-0.4-0.3
				c-0.1-0.1-0.2-0.3-0.3-0.4C171.4,37.1,171.4,36.9,171.4,36.7z M173.9,39.3V46h-2.4v-6.7H173.9z"/>
			<path d="M180.6,41.5c-0.4-0.3-0.8-0.4-1.2-0.4c-0.2,0-0.4,0-0.6,0.1c-0.2,0.1-0.4,0.2-0.5,0.3c-0.1,0.1-0.3,0.3-0.3,0.5
				c-0.1,0.2-0.1,0.4-0.1,0.7c0,0.2,0,0.5,0.1,0.6c0.1,0.2,0.2,0.4,0.3,0.5c0.1,0.1,0.3,0.3,0.5,0.3c0.2,0.1,0.4,0.1,0.6,0.1
				c0.4,0,0.9-0.2,1.2-0.5v2c-0.6,0.3-1.1,0.4-1.7,0.4c-0.5,0-1-0.1-1.4-0.2c-0.4-0.2-0.8-0.4-1.2-0.7c-0.3-0.3-0.6-0.7-0.8-1.1
				c-0.2-0.4-0.3-0.9-0.3-1.4c0-0.5,0.1-1,0.3-1.5c0.2-0.4,0.5-0.8,0.8-1.1c0.3-0.3,0.7-0.6,1.2-0.7c0.5-0.2,1-0.3,1.5-0.3
				c0.6,0,1.1,0.1,1.6,0.4V41.5z"/>
			<path d="M192.7,44.3h-3.7l-0.6,1.7h-2.7l3.8-9.9h2.8l3.8,9.9h-2.7L192.7,44.3z M192.1,42.3l-1.2-3.3l-1.2,3.3H192.1z"/>
			<path d="M199.5,35.1V46h-2.4V35.1H199.5z"/>
			<path d="M203.5,35.1V46h-2.4V35.1H203.5z"/>
			<path d="M205,36.7c0-0.2,0-0.4,0.1-0.5c0.1-0.2,0.2-0.3,0.3-0.4c0.1-0.1,0.3-0.2,0.4-0.3c0.2-0.1,0.3-0.1,0.5-0.1
				c0.2,0,0.4,0,0.5,0.1c0.2,0.1,0.3,0.2,0.4,0.3c0.1,0.1,0.2,0.3,0.3,0.4c0.1,0.2,0.1,0.3,0.1,0.5c0,0.2,0,0.4-0.1,0.5
				c-0.1,0.2-0.2,0.3-0.3,0.4c-0.1,0.1-0.3,0.2-0.4,0.3c-0.2,0.1-0.3,0.1-0.5,0.1c-0.2,0-0.4,0-0.5-0.1c-0.2-0.1-0.3-0.2-0.4-0.3
				c-0.1-0.1-0.2-0.3-0.3-0.4C205,37.1,205,36.9,205,36.7z M207.5,39.3V46h-2.4v-6.7H207.5z"/>
			<path d="M214.3,39.3h2.4V46h-2.4v-0.7c-0.5,0.6-1.2,1-2.1,1c-0.5,0-0.9-0.1-1.4-0.3c-0.4-0.2-0.8-0.4-1.1-0.8
				c-0.3-0.3-0.5-0.7-0.7-1.1c-0.2-0.4-0.3-0.9-0.3-1.4c0-0.5,0.1-0.9,0.2-1.4s0.4-0.8,0.7-1.1c0.3-0.3,0.7-0.6,1.1-0.8
				c0.4-0.2,0.9-0.3,1.4-0.3c0.8,0,1.5,0.3,2.1,0.9V39.3z M211.3,42.6c0,0.2,0,0.4,0.1,0.6c0.1,0.2,0.2,0.4,0.3,0.5
				c0.1,0.1,0.3,0.2,0.5,0.3c0.2,0.1,0.4,0.1,0.6,0.1c0.2,0,0.4,0,0.6-0.1c0.2-0.1,0.3-0.2,0.5-0.3c0.1-0.1,0.2-0.3,0.3-0.5
				c0.1-0.2,0.1-0.4,0.1-0.6c0-0.2,0-0.4-0.1-0.6c-0.1-0.2-0.2-0.4-0.3-0.5c-0.1-0.1-0.3-0.2-0.5-0.3c-0.2-0.1-0.4-0.1-0.6-0.1
				c-0.2,0-0.4,0-0.6,0.1c-0.2,0.1-0.3,0.2-0.5,0.3c-0.1,0.1-0.2,0.3-0.3,0.5C211.4,42.2,211.3,42.4,211.3,42.6z"/>
			<path d="M218.3,39.3h2.4v0.9c0.3-0.4,0.7-0.7,1-0.8c0.3-0.1,0.7-0.2,1.2-0.2c0.5,0,0.9,0.1,1.2,0.2c0.3,0.2,0.6,0.4,0.9,0.6
				c0.2,0.2,0.3,0.5,0.4,0.8c0.1,0.3,0.1,0.6,0.1,1V46H223v-3.4c0-0.3,0-0.6-0.1-0.8c0-0.2-0.1-0.4-0.3-0.5
				c-0.1-0.1-0.2-0.2-0.4-0.2c-0.1,0-0.3-0.1-0.4-0.1c-0.4,0-0.7,0.1-0.9,0.4c-0.2,0.2-0.3,0.6-0.3,1V46h-2.4V39.3z"/>
			<path d="M232.1,41.5c-0.4-0.3-0.8-0.4-1.2-0.4c-0.2,0-0.4,0-0.6,0.1c-0.2,0.1-0.4,0.2-0.5,0.3c-0.1,0.1-0.3,0.3-0.3,0.5
				c-0.1,0.2-0.1,0.4-0.1,0.7c0,0.2,0,0.5,0.1,0.6c0.1,0.2,0.2,0.4,0.3,0.5c0.1,0.1,0.3,0.3,0.5,0.3c0.2,0.1,0.4,0.1,0.6,0.1
				c0.4,0,0.9-0.2,1.2-0.5v2c-0.6,0.3-1.1,0.4-1.7,0.4c-0.5,0-1-0.1-1.4-0.2c-0.4-0.2-0.8-0.4-1.2-0.7c-0.3-0.3-0.6-0.7-0.8-1.1
				c-0.2-0.4-0.3-0.9-0.3-1.4c0-0.5,0.1-1,0.3-1.5c0.2-0.4,0.5-0.8,0.8-1.1s0.7-0.6,1.2-0.7c0.5-0.2,1-0.3,1.5-0.3
				c0.6,0,1.1,0.1,1.6,0.4V41.5z"/>
			<path d="M235.6,43c0,1,0.5,1.5,1.4,1.5c0.5,0,0.9-0.2,1.2-0.6h2.3c-0.5,1.5-1.6,2.3-3.5,2.3c-0.6,0-1.1-0.1-1.6-0.3
				c-0.5-0.2-0.9-0.4-1.2-0.7c-0.3-0.3-0.6-0.7-0.8-1.1c-0.2-0.4-0.3-0.9-0.3-1.5c0-0.6,0.1-1.1,0.3-1.5c0.2-0.5,0.4-0.8,0.7-1.1
				c0.3-0.3,0.7-0.6,1.2-0.7c0.5-0.2,1-0.3,1.6-0.3c0.6,0,1.1,0.1,1.5,0.3c0.5,0.2,0.8,0.4,1.2,0.7c0.3,0.3,0.6,0.7,0.7,1.2
				c0.2,0.5,0.2,1,0.2,1.6V43H235.6z M238.4,41.7c-0.1-0.3-0.2-0.6-0.5-0.8c-0.2-0.2-0.5-0.3-0.9-0.3c-0.4,0-0.7,0.1-0.9,0.3
				c-0.2,0.2-0.4,0.5-0.4,0.8H238.4z"/>
		</g>
	</g>
	<line class="st0" x1="114.3" y1="16.1" x2="114.3" y2="52.9"/>
	<path d="M50.9,43.1c0-0.6-0.1-1.1-0.1-1.7c-0.1-4,1.1-7.5,3.9-10.4c0.4-0.4,0.9-0.8,1.5-0.8c0.4,0,0.8,0.2,1.1,0.5
		c1.3,1.1,2.2,2.5,2.9,4c1.2,2.5,1.5,5.2,1.3,8c0,0.1,0,0.1,0,0.2c0,0,0,0,0,0c0.1-0.1,0.2-0.2,0.3-0.3c1.7-1.4,3.5-2.7,5.4-3.8
		c0.7-0.4,1.6-0.3,2.1,0.3c0.2,0.3,0.4,0.6,0.4,0.9c0.4,2.7,0.3,5.3-0.4,7.9c0,0.1,0,0.1,0,0.3c0.2-0.2,0.4-0.3,0.5-0.5
		c3.3-3.3,5.3-7.3,5.8-12c0.9-9.5-5.2-18.2-14.4-20.7c-0.7-0.2-1.4-0.3-2.1-0.4c-0.2,0-0.4,0-0.6,0.1c-0.3,0.1-0.6,0.3-0.6,0.7
		c0,0.1,0,0.3,0,0.4c0,2.2,0,4.4,0,6.6c0,0.1,0,0.1,0,0.2c0.1-0.1,0.2-0.2,0.3-0.2c0.8-0.8,1.6-1.6,2.4-2.4c0.5-0.5,1.1-0.6,1.7-0.4
		c0.6,0.2,1,0.7,1,1.4c0,0.5-0.1,0.9-0.4,1.2c-1.8,1.8-3.6,3.6-5.4,5.4c-0.7,0.6-1.6,0.6-2.3,0c-1.8-1.8-3.6-3.6-5.3-5.3
		c-0.6-0.6-0.7-1.6,0-2.3c0.6-0.6,1.6-0.7,2.3,0c0.8,0.8,1.5,1.5,2.3,2.3c0.1,0.1,0.2,0.1,0.3,0.3c0-0.3,0-0.5,0-0.7c0-2,0-4,0-6
		c0-0.7,0.1-1.4,0.4-2.1c0.7-1.5,2-2.2,3.6-2.4c1.5-0.1,2.9,0.3,4.3,0.7c8,2.7,13.2,8,15.3,16.1c3,11.4-3.4,23-14.5,26.9
		c-8,2.8-17,0.9-23.2-5c-3.7-3.6-6-7.9-6.8-13c-1.6-10.6,4.5-21,14.6-24.7c0.9-0.3,1.8,0.1,2.2,0.9c0.3,0.9-0.1,1.7-1,2.1
		c-6.7,2.7-11,7.5-12.4,14.5c-1.4,6.8,0.6,12.8,5.6,17.7c0,0,0.1,0.1,0.1,0.1c0,0,0,0,0.1,0c-0.2-0.6-0.3-1.2-0.4-1.9
		C42,44,41.9,42,42.2,39.9c0.2-1.2,1.4-1.7,2.4-1.1c2.1,1.2,4.1,2.5,5.9,4.1C50.6,42.9,50.7,43,50.9,43.1z M58.4,41
		c0-0.1,0-0.3,0-0.4c-0.1-2.1-0.6-4.1-1.8-5.9c-0.3-0.4-0.4-0.4-0.7,0c-1.2,1.7-1.7,3.6-1.8,5.6c-0.1,2.9,0.6,5.6,1.9,8.2
		c0.1,0.1,0.2,0.3,0.3,0.3c0.1,0,0.3-0.1,0.3-0.3C57.6,46.1,58.4,43.6,58.4,41z M45.2,43.6c0.2,0.9,0.3,1.7,0.4,2.5
		c0.5,2.1,1.5,4,3.4,5.3c1.4,1,3,1.5,4.7,1.7c0.4,0,0.6-0.1,0.4-0.5c-0.3-1-0.8-1.9-1.5-2.8c-1.8-2.6-4.3-4.7-6.9-6.5
		c-0.1-0.1-0.3-0.1-0.3,0C45.3,43.3,45.3,43.5,45.2,43.6z M66.7,43.8c0,0,0-0.1,0-0.1c0-0.2-0.1-0.3-0.1-0.5c-0.2,0-0.4,0.1-0.5,0.2
		c-0.4,0.3-0.9,0.6-1.3,1c-2,1.6-3.9,3.4-5.3,5.5c-0.6,0.8-1,1.7-1.3,2.7c-0.1,0.4,0,0.6,0.4,0.5c0.2,0,0.4-0.1,0.7-0.1
		c2.4-0.4,4.3-1.4,5.7-3.4C66.2,47.8,66.6,45.9,66.7,43.8z"/>
</g>
</svg>
